<?xml version="1.0" encoding="utf-8"?>
<svg version="1.1" xmlns:xlink="http://www.w3.org/1999/xlink" width="12px" height="12px" viewBox="246 436.5  12 12" xmlns="http://www.w3.org/2000/svg">
  <path d="M 252 436.5  C 255.36 436.5  258 439.14  258 442.5  C 258 445.86  255.36 448.5  252 448.5  C 248.64 448.5  246 445.86  246 442.5  C 246 439.14  248.64 436.5  252 436.5  Z " fill-rule="nonzero" fill="#f0f0f0" stroke="none" />
  <path d="M 252 437  C 255.08 437  257.5 439.42  257.5 442.5  C 257.5 445.58  255.08 448  252 448  C 248.92 448  246.5 445.58  246.5 442.5  C 246.5 439.42  248.92 437  252 437  Z " stroke-width="1" stroke="#797979" fill="none" />
  <path d="M 252 445.5  C 250.32 445.5  249 444.18  249 442.5  C 249 440.82  250.32 439.5  252 439.5  C 253.68 439.5  255 440.82  255 442.5  C 255 444.18  253.68 445.5  252 445.5  " fill-rule="nonzero" fill="#797979" stroke="none" />
</svg>