<?xml version="1.0" encoding="utf-8"?>
<svg version="1.1" xmlns:xlink="http://www.w3.org/1999/xlink" width="12px" height="12px" viewBox="136 436.5  12 12" xmlns="http://www.w3.org/2000/svg">
  <path d="M 142 436.5  C 145.36 436.5  148 439.14  148 442.5  C 148 445.86  145.36 448.5  142 448.5  C 138.64 448.5  136 445.86  136 442.5  C 136 439.14  138.64 436.5  142 436.5  Z " fill-rule="nonzero" fill="#ffffff" stroke="none" />
  <path d="M 142 437  C 145.08 437  147.5 439.42  147.5 442.5  C 147.5 445.58  145.08 448  142 448  C 138.92 448  136.5 445.58  136.5 442.5  C 136.5 439.42  138.92 437  142 437  Z " stroke-width="1" stroke="#797979" fill="none" />
  <path d="M 142 445.5  C 140.32 445.5  139 444.18  139 442.5  C 139 440.82  140.32 439.5  142 439.5  C 143.68 439.5  145 440.82  145 442.5  C 145 444.18  143.68 445.5  142 445.5  " fill-rule="nonzero" fill="#797979" stroke="none" />
</svg>