<?xml version="1.0" encoding="utf-8"?>
<svg version="1.1" xmlns:xlink="http://www.w3.org/1999/xlink" width="108px" height="31px" xmlns="http://www.w3.org/2000/svg">
  <defs>
    <mask fill="white" id="clip13">
      <path d="M 0 27  L 0 4  C 0 1.75999999999999  1.75999999999999 0  4 0  L 62.2000000000007 0  L 104 0  C 106.24 0  108 1.75999999999999  108 4  L 108 27  C 108 29.24  106.24 31  104 31  L 4 31  C 1.75999999999999 31  0 29.24  0 27  Z " fill-rule="evenodd" />
    </mask>
  </defs>
  <g transform="matrix(1 0 0 1 -1228 -301 )">
    <path d="M 0 27  L 0 4  C 0 1.75999999999999  1.75999999999999 0  4 0  L 62.2000000000007 0  L 104 0  C 106.24 0  108 1.75999999999999  108 4  L 108 27  C 108 29.24  106.24 31  104 31  L 4 31  C 1.75999999999999 31  0 29.24  0 27  Z " fill-rule="nonzero" fill="#ecf5ff" stroke="none" transform="matrix(1 0 0 1 1228 301 )" />
    <path d="M 0 27  L 0 4  C 0 1.75999999999999  1.75999999999999 0  4 0  L 62.2000000000007 0  L 104 0  C 106.24 0  108 1.75999999999999  108 4  L 108 27  C 108 29.24  106.24 31  104 31  L 4 31  C 1.75999999999999 31  0 29.24  0 27  Z " stroke-width="2" stroke="#b3d8ff" fill="none" transform="matrix(1 0 0 1 1228 301 )" mask="url(#clip13)" />
  </g>
</svg>