<?xml version="1.0" encoding="utf-8"?>
<svg version="1.1" xmlns:xlink="http://www.w3.org/1999/xlink" width="12px" height="12px" viewBox="110 422.5  12 12" xmlns="http://www.w3.org/2000/svg">
  <path d="M 116 422.5  C 119.36 422.5  122 425.14  122 428.5  C 122 431.86  119.36 434.5  116 434.5  C 112.64 434.5  110 431.86  110 428.5  C 110 425.14  112.64 422.5  116 422.5  Z " fill-rule="nonzero" fill="#ffffff" stroke="none" />
  <path d="M 116 423  C 119.08 423  121.5 425.42  121.5 428.5  C 121.5 431.58  119.08 434  116 434  C 112.92 434  110.5 431.58  110.5 428.5  C 110.5 425.42  112.92 423  116 423  Z " stroke-width="1" stroke="#797979" fill="none" />
  <path d="M 116 431.5  C 114.32 431.5  113 430.18  113 428.5  C 113 426.82  114.32 425.5  116 425.5  C 117.68 425.5  119 426.82  119 428.5  C 119 430.18  117.68 431.5  116 431.5  " fill-rule="nonzero" fill="#797979" stroke="none" />
</svg>