<?xml version="1.0" encoding="utf-8"?>
<svg version="1.1" xmlns:xlink="http://www.w3.org/1999/xlink" width="12px" height="12px" viewBox="110 386.5  12 12" xmlns="http://www.w3.org/2000/svg">
  <path d="M 116 386.5  C 119.36 386.5  122 389.14  122 392.5  C 122 395.86  119.36 398.5  116 398.5  C 112.64 398.5  110 395.86  110 392.5  C 110 389.14  112.64 386.5  116 386.5  Z " fill-rule="nonzero" fill="#ffffff" stroke="none" />
  <path d="M 116 387  C 119.08 387  121.5 389.42  121.5 392.5  C 121.5 395.58  119.08 398  116 398  C 112.92 398  110.5 395.58  110.5 392.5  C 110.5 389.42  112.92 387  116 387  Z " stroke-width="1" stroke="#797979" fill="none" />
  <path d="M 116 395.5  C 114.32 395.5  113 394.18  113 392.5  C 113 390.82  114.32 389.5  116 389.5  C 117.68 389.5  119 390.82  119 392.5  C 119 394.18  117.68 395.5  116 395.5  " fill-rule="nonzero" fill="#797979" stroke="none" />
</svg>