<?xml version="1.0" encoding="utf-8"?>
<svg version="1.1" xmlns:xlink="http://www.w3.org/1999/xlink" width="12px" height="12px" viewBox="220 386.5  12 12" xmlns="http://www.w3.org/2000/svg">
  <path d="M 226 386.5  C 229.36 386.5  232 389.14  232 392.5  C 232 395.86  229.36 398.5  226 398.5  C 222.64 398.5  220 395.86  220 392.5  C 220 389.14  222.64 386.5  226 386.5  Z " fill-rule="nonzero" fill="#f0f0f0" stroke="none" />
  <path d="M 226 387  C 229.08 387  231.5 389.42  231.5 392.5  C 231.5 395.58  229.08 398  226 398  C 222.92 398  220.5 395.58  220.5 392.5  C 220.5 389.42  222.92 387  226 387  Z " stroke-width="1" stroke="#797979" fill="none" />
  <path d="M 226 395.5  C 224.32 395.5  223 394.18  223 392.5  C 223 390.82  224.32 389.5  226 389.5  C 227.68 389.5  229 390.82  229 392.5  C 229 394.18  227.68 395.5  226 395.5  " fill-rule="nonzero" fill="#797979" stroke="none" />
</svg>