<?xml version="1.0" encoding="utf-8"?>
<svg version="1.1" xmlns:xlink="http://www.w3.org/1999/xlink" width="18px" height="18px" xmlns="http://www.w3.org/2000/svg">
  <g transform="matrix(1 0 0 1 -842 -11 )">
    <path d="M 17.8091517857143 8.54799107142857  C 17.9363839285714 8.67522321428571  18 8.82589285714286  18 9  C 18 9.17410714285714  17.9363839285714 9.32477678571428  17.8091517857143 9.45200892857143  L 15.2377232142857 12.0234375  C 15.1104910714286 12.1506696428571  14.9598214285714 12.2142857142857  14.7857142857143 12.2142857142857  C 14.6116071428571 12.2142857142857  14.4609375 12.1506696428571  14.3337053571429 12.0234375  C 14.2064732142857 11.8962053571429  14.1428571428571 11.7455357142857  14.1428571428571 11.5714285714286  L 14.1428571428571 10.2857142857143  L 10.2857142857143 10.2857142857143  L 10.2857142857143 14.1428571428571  L 11.5714285714286 14.1428571428571  C 11.7455357142857 14.1428571428571  11.8962053571429 14.2064732142857  12.0234375 14.3337053571429  C 12.1506696428571 14.4609375  12.2142857142857 14.6116071428571  12.2142857142857 14.7857142857143  C 12.2142857142857 14.9598214285714  12.1506696428571 15.1104910714286  12.0234375 15.2377232142857  L 9.45200892857143 17.8091517857143  C 9.32477678571429 17.9363839285714  9.17410714285714 18  9 18  C 8.82589285714286 18  8.67522321428572 17.9363839285714  8.54799107142857 17.8091517857143  L 5.9765625 15.2377232142857  C 5.84933035714286 15.1104910714286  5.78571428571429 14.9598214285714  5.78571428571429 14.7857142857143  C 5.78571428571429 14.6116071428571  5.84933035714286 14.4609375  5.9765625 14.3337053571429  C 6.10379464285714 14.2064732142857  6.25446428571429 14.1428571428571  6.42857142857143 14.1428571428571  L 7.71428571428571 14.1428571428571  L 7.71428571428571 10.2857142857143  L 3.85714285714286 10.2857142857143  L 3.85714285714286 11.5714285714286  C 3.85714285714286 11.7455357142857  3.79352678571429 11.8962053571429  3.66629464285714 12.0234375  C 3.5390625 12.1506696428571  3.38839285714286 12.2142857142857  3.21428571428571 12.2142857142857  C 3.04017857142857 12.2142857142857  2.88950892857143 12.1506696428571  2.76227678571429 12.0234375  L 0.190848214285714 9.45200892857143  C 0.0636160714285714 9.32477678571428  0 9.17410714285714  0 9  C 0 8.82589285714286  0.0636160714285714 8.67522321428571  0.190848214285714 8.54799107142857  L 2.76227678571429 5.9765625  C 2.88950892857143 5.84933035714286  3.04017857142857 5.78571428571428  3.21428571428571 5.78571428571428  C 3.38839285714286 5.78571428571428  3.5390625 5.84933035714286  3.66629464285714 5.9765625  C 3.79352678571429 6.10379464285714  3.85714285714286 6.25446428571428  3.85714285714286 6.42857142857143  L 3.85714285714286 7.71428571428572  L 7.71428571428571 7.71428571428572  L 7.71428571428571 3.85714285714286  L 6.42857142857143 3.85714285714286  C 6.25446428571429 3.85714285714286  6.10379464285714 3.79352678571428  5.9765625 3.66629464285714  C 5.84933035714286 3.5390625  5.78571428571429 3.38839285714286  5.78571428571429 3.21428571428571  C 5.78571428571429 3.04017857142857  5.84933035714286 2.88950892857143  5.9765625 2.76227678571429  L 8.54799107142857 0.190848214285715  C 8.67522321428572 0.063616071428573  8.82589285714286 0  9 0  C 9.17410714285714 0  9.32477678571429 0.063616071428573  9.45200892857143 0.190848214285715  L 12.0234375 2.76227678571429  C 12.1506696428571 2.88950892857143  12.2142857142857 3.04017857142857  12.2142857142857 3.21428571428571  C 12.2142857142857 3.38839285714286  12.1506696428571 3.5390625  12.0234375 3.66629464285714  C 11.8962053571429 3.79352678571428  11.7455357142857 3.85714285714286  11.5714285714286 3.85714285714286  L 10.2857142857143 3.85714285714286  L 10.2857142857143 7.71428571428572  L 14.1428571428571 7.71428571428572  L 14.1428571428571 6.42857142857143  C 14.1428571428571 6.25446428571428  14.2064732142857 6.10379464285714  14.3337053571429 5.9765625  C 14.4609375 5.84933035714286  14.6116071428571 5.78571428571428  14.7857142857143 5.78571428571428  C 14.9598214285714 5.78571428571428  15.1104910714286 5.84933035714286  15.2377232142857 5.9765625  L 17.8091517857143 8.54799107142857  Z " fill-rule="nonzero" fill="#aaaaaa" stroke="none" transform="matrix(1 0 0 1 842 11 )" />
  </g>
</svg>