<?xml version="1.0" encoding="utf-8"?>
<svg version="1.1" xmlns:xlink="http://www.w3.org/1999/xlink" width="12px" height="12px" viewBox="136 406.5  12 12" xmlns="http://www.w3.org/2000/svg">
  <path d="M 142 406.5  C 145.36 406.5  148 409.14  148 412.5  C 148 415.86  145.36 418.5  142 418.5  C 138.64 418.5  136 415.86  136 412.5  C 136 409.14  138.64 406.5  142 406.5  Z " fill-rule="nonzero" fill="#ffffff" stroke="none" />
  <path d="M 142 407  C 145.08 407  147.5 409.42  147.5 412.5  C 147.5 415.58  145.08 418  142 418  C 138.92 418  136.5 415.58  136.5 412.5  C 136.5 409.42  138.92 407  142 407  Z " stroke-width="1" stroke="#797979" fill="none" />
  <path d="M 142 415.5  C 140.32 415.5  139 414.18  139 412.5  C 139 410.82  140.32 409.5  142 409.5  C 143.68 409.5  145 410.82  145 412.5  C 145 414.18  143.68 415.5  142 415.5  " fill-rule="nonzero" fill="#797979" stroke="none" />
</svg>