<?xml version="1.0" encoding="utf-8"?>
<svg version="1.1" xmlns:xlink="http://www.w3.org/1999/xlink" width="12px" height="12px" viewBox="246 406.5  12 12" xmlns="http://www.w3.org/2000/svg">
  <path d="M 252 406.5  C 255.36 406.5  258 409.14  258 412.5  C 258 415.86  255.36 418.5  252 418.5  C 248.64 418.5  246 415.86  246 412.5  C 246 409.14  248.64 406.5  252 406.5  Z " fill-rule="nonzero" fill="#ffffff" stroke="none" />
  <path d="M 252 407  C 255.08 407  257.5 409.42  257.5 412.5  C 257.5 415.58  255.08 418  252 418  C 248.92 418  246.5 415.58  246.5 412.5  C 246.5 409.42  248.92 407  252 407  Z " stroke-width="1" stroke="#797979" fill="none" />
  <path d="M 252 415.5  C 250.32 415.5  249 414.18  249 412.5  C 249 410.82  250.32 409.5  252 409.5  C 253.68 409.5  255 410.82  255 412.5  C 255 414.18  253.68 415.5  252 415.5  " fill-rule="nonzero" fill="#797979" stroke="none" />
</svg>