<?xml version="1.0" encoding="utf-8"?>
<svg version="1.1" xmlns:xlink="http://www.w3.org/1999/xlink" width="12px" height="12px" viewBox="136 442.5  12 12" xmlns="http://www.w3.org/2000/svg">
  <path d="M 142 442.5  C 145.36 442.5  148 445.14  148 448.5  C 148 451.86  145.36 454.5  142 454.5  C 138.64 454.5  136 451.86  136 448.5  C 136 445.14  138.64 442.5  142 442.5  Z " fill-rule="nonzero" fill="#f0f0f0" stroke="none" />
  <path d="M 142 443  C 145.08 443  147.5 445.42  147.5 448.5  C 147.5 451.58  145.08 454  142 454  C 138.92 454  136.5 451.58  136.5 448.5  C 136.5 445.42  138.92 443  142 443  Z " stroke-width="1" stroke="#797979" fill="none" />
  <path d="M 142 451.5  C 140.32 451.5  139 450.18  139 448.5  C 139 446.82  140.32 445.5  142 445.5  C 143.68 445.5  145 446.82  145 448.5  C 145 450.18  143.68 451.5  142 451.5  " fill-rule="nonzero" fill="#797979" stroke="none" />
</svg>