<?xml version="1.0" encoding="utf-8"?>
<svg version="1.1" xmlns:xlink="http://www.w3.org/1999/xlink" width="13px" height="7px" xmlns="http://www.w3.org/2000/svg">
  <g transform="matrix(1 0 0 1 -160 -20 )">
    <path d="M 12.7587890625 5.67534722222222  C 12.9195963541667 5.8292824074074  13 6.01157407407407  13 6.22222222222222  C 13 6.43287037037037  12.9195963541667 6.61516203703704  12.7587890625 6.76909722222222  C 12.5979817708333 6.92303240740741  12.4075520833333 7  12.1875 7  L 0.8125 7  C 0.592447916666667 7  0.402018229166667 6.92303240740741  0.2412109375 6.76909722222222  C 0.0804036458333333 6.61516203703704  0 6.43287037037037  0 6.22222222222222  C 0 6.01157407407407  0.0804036458333333 5.8292824074074  0.2412109375 5.67534722222222  L 5.9287109375 0.230902777777778  C 6.08951822916667 0.0769675925925917  6.27994791666667 0  6.5 0  C 6.72005208333333 0  6.91048177083333 0.0769675925925917  7.0712890625 0.230902777777778  L 12.7587890625 5.67534722222222  Z " fill-rule="nonzero" fill="#f2f2f2" stroke="none" transform="matrix(1 0 0 1 160 20 )" />
  </g>
</svg>