<?xml version="1.0" encoding="utf-8"?>
<svg version="1.1" xmlns:xlink="http://www.w3.org/1999/xlink" width="13px" height="9px" xmlns="http://www.w3.org/2000/svg">
  <g transform="matrix(1 0 0 1 -160 -20 )">
    <path d="M 12.7587890625 7.296875  C 12.9195963541667 7.49479166666666  13 7.72916666666666  13 8  C 13 8.27083333333333  12.9195963541667 8.50520833333333  12.7587890625 8.703125  C 12.5979817708333 8.90104166666667  12.4075520833333 9  12.1875 9  L 0.8125 9  C 0.592447916666667 9  0.402018229166667 8.90104166666667  0.2412109375 8.703125  C 0.0804036458333333 8.50520833333333  0 8.27083333333333  0 8  C 0 7.72916666666666  0.0804036458333333 7.49479166666666  0.2412109375 7.296875  L 5.9287109375 0.296875  C 6.08951822916667 0.0989583333333321  6.27994791666667 0  6.5 0  C 6.72005208333333 0  6.91048177083333 0.0989583333333321  7.0712890625 0.296875  L 12.7587890625 7.296875  Z " fill-rule="nonzero" fill="#f2f2f2" stroke="none" transform="matrix(1 0 0 1 160 20 )" />
  </g>
</svg>