<?xml version="1.0" encoding="utf-8"?>
<svg version="1.1" xmlns:xlink="http://www.w3.org/1999/xlink" width="12px" height="12px" viewBox="135 479.5  12 12" xmlns="http://www.w3.org/2000/svg">
  <path d="M 141 479.5  C 144.36 479.5  147 482.14  147 485.5  C 147 488.86  144.36 491.5  141 491.5  C 137.64 491.5  135 488.86  135 485.5  C 135 482.14  137.64 479.5  141 479.5  Z " fill-rule="nonzero" fill="#ffffff" stroke="none" />
  <path d="M 141 480  C 144.08 480  146.5 482.42  146.5 485.5  C 146.5 488.58  144.08 491  141 491  C 137.92 491  135.5 488.58  135.5 485.5  C 135.5 482.42  137.92 480  141 480  Z " stroke-width="1" stroke="#797979" fill="none" />
  <path d="M 141 488.5  C 139.32 488.5  138 487.18  138 485.5  C 138 483.82  139.32 482.5  141 482.5  C 142.68 482.5  144 483.82  144 485.5  C 144 487.18  142.68 488.5  141 488.5  " fill-rule="nonzero" fill="#797979" stroke="none" />
</svg>