<?xml version="1.0" encoding="utf-8"?>
<svg version="1.1" xmlns:xlink="http://www.w3.org/1999/xlink" width="12px" height="12px" viewBox="274 479.5  12 12" xmlns="http://www.w3.org/2000/svg">
  <path d="M 280 479.5  C 283.36 479.5  286 482.14  286 485.5  C 286 488.86  283.36 491.5  280 491.5  C 276.64 491.5  274 488.86  274 485.5  C 274 482.14  276.64 479.5  280 479.5  Z " fill-rule="nonzero" fill="#ffffff" stroke="none" />
  <path d="M 280 480  C 283.08 480  285.5 482.42  285.5 485.5  C 285.5 488.58  283.08 491  280 491  C 276.92 491  274.5 488.58  274.5 485.5  C 274.5 482.42  276.92 480  280 480  Z " stroke-width="1" stroke="#797979" fill="none" />
  <path d="M 280 488.5  C 278.32 488.5  277 487.18  277 485.5  C 277 483.82  278.32 482.5  280 482.5  C 281.68 482.5  283 483.82  283 485.5  C 283 487.18  281.68 488.5  280 488.5  " fill-rule="nonzero" fill="#797979" stroke="none" />
</svg>