<?xml version="1.0" encoding="utf-8"?>
<svg version="1.1" xmlns:xlink="http://www.w3.org/1999/xlink" width="12px" height="12px" viewBox="435 479.5  12 12" xmlns="http://www.w3.org/2000/svg">
  <path d="M 441 479.5  C 444.36 479.5  447 482.14  447 485.5  C 447 488.86  444.36 491.5  441 491.5  C 437.64 491.5  435 488.86  435 485.5  C 435 482.14  437.64 479.5  441 479.5  Z " fill-rule="nonzero" fill="#f0f0f0" stroke="none" />
  <path d="M 441 480  C 444.08 480  446.5 482.42  446.5 485.5  C 446.5 488.58  444.08 491  441 491  C 437.92 491  435.5 488.58  435.5 485.5  C 435.5 482.42  437.92 480  441 480  Z " stroke-width="1" stroke="#797979" fill="none" />
  <path d="M 441 488.5  C 439.32 488.5  438 487.18  438 485.5  C 438 483.82  439.32 482.5  441 482.5  C 442.68 482.5  444 483.82  444 485.5  C 444 487.18  442.68 488.5  441 488.5  " fill-rule="nonzero" fill="#797979" stroke="none" />
</svg>