<?xml version="1.0" encoding="utf-8"?>
<svg version="1.1" xmlns:xlink="http://www.w3.org/1999/xlink" width="12px" height="12px" viewBox="136 366.5  12 12" xmlns="http://www.w3.org/2000/svg">
  <path d="M 142 366.5  C 145.36 366.5  148 369.14  148 372.5  C 148 375.86  145.36 378.5  142 378.5  C 138.64 378.5  136 375.86  136 372.5  C 136 369.14  138.64 366.5  142 366.5  Z " fill-rule="nonzero" fill="#ffffff" stroke="none" />
  <path d="M 142 367  C 145.08 367  147.5 369.42  147.5 372.5  C 147.5 375.58  145.08 378  142 378  C 138.92 378  136.5 375.58  136.5 372.5  C 136.5 369.42  138.92 367  142 367  Z " stroke-width="1" stroke="#797979" fill="none" />
  <path d="M 142 375.5  C 140.32 375.5  139 374.18  139 372.5  C 139 370.82  140.32 369.5  142 369.5  C 143.68 369.5  145 370.82  145 372.5  C 145 374.18  143.68 375.5  142 375.5  " fill-rule="nonzero" fill="#797979" stroke="none" />
</svg>