<?xml version="1.0" encoding="utf-8"?>
<svg version="1.1" xmlns:xlink="http://www.w3.org/1999/xlink" width="12px" height="12px" viewBox="266 366.5  12 12" xmlns="http://www.w3.org/2000/svg">
  <path d="M 272 366.5  C 275.36 366.5  278 369.14  278 372.5  C 278 375.86  275.36 378.5  272 378.5  C 268.64 378.5  266 375.86  266 372.5  C 266 369.14  268.64 366.5  272 366.5  Z " fill-rule="nonzero" fill="#ffffff" stroke="none" />
  <path d="M 272 367  C 275.08 367  277.5 369.42  277.5 372.5  C 277.5 375.58  275.08 378  272 378  C 268.92 378  266.5 375.58  266.5 372.5  C 266.5 369.42  268.92 367  272 367  Z " stroke-width="1" stroke="#797979" fill="none" />
  <path d="M 272 375.5  C 270.32 375.5  269 374.18  269 372.5  C 269 370.82  270.32 369.5  272 369.5  C 273.68 369.5  275 370.82  275 372.5  C 275 374.18  273.68 375.5  272 375.5  " fill-rule="nonzero" fill="#797979" stroke="none" />
</svg>