<?xml version="1.0" encoding="utf-8"?>
<svg version="1.1" xmlns:xlink="http://www.w3.org/1999/xlink" width="12px" height="12px" viewBox="265 356.5  12 12" xmlns="http://www.w3.org/2000/svg">
  <path d="M 271 356.5  C 274.36 356.5  277 359.14  277 362.5  C 277 365.86  274.36 368.5  271 368.5  C 267.64 368.5  265 365.86  265 362.5  C 265 359.14  267.64 356.5  271 356.5  Z " fill-rule="nonzero" fill="#f0f0f0" stroke="none" />
  <path d="M 271 357  C 274.08 357  276.5 359.42  276.5 362.5  C 276.5 365.58  274.08 368  271 368  C 267.92 368  265.5 365.58  265.5 362.5  C 265.5 359.42  267.92 357  271 357  Z " stroke-width="1" stroke="#797979" fill="none" />
  <path d="M 271 365.5  C 269.32 365.5  268 364.18  268 362.5  C 268 360.82  269.32 359.5  271 359.5  C 272.68 359.5  274 360.82  274 362.5  C 274 364.18  272.68 365.5  271 365.5  " fill-rule="nonzero" fill="#797979" stroke="none" />
</svg>