<?xml version="1.0" encoding="utf-8"?>
<svg version="1.1" xmlns:xlink="http://www.w3.org/1999/xlink" width="12px" height="12px" viewBox="265 392.5  12 12" xmlns="http://www.w3.org/2000/svg">
  <path d="M 271 392.5  C 274.36 392.5  277 395.14  277 398.5  C 277 401.86  274.36 404.5  271 404.5  C 267.64 404.5  265 401.86  265 398.5  C 265 395.14  267.64 392.5  271 392.5  Z " fill-rule="nonzero" fill="#ffffff" stroke="none" />
  <path d="M 271 393  C 274.08 393  276.5 395.42  276.5 398.5  C 276.5 401.58  274.08 404  271 404  C 267.92 404  265.5 401.58  265.5 398.5  C 265.5 395.42  267.92 393  271 393  Z " stroke-width="1" stroke="#797979" fill="none" />
  <path d="M 271 401.5  C 269.32 401.5  268 400.18  268 398.5  C 268 396.82  269.32 395.5  271 395.5  C 272.68 395.5  274 396.82  274 398.5  C 274 400.18  272.68 401.5  271 401.5  " fill-rule="nonzero" fill="#797979" stroke="none" />
</svg>