<?xml version="1.0" encoding="utf-8"?>
<svg version="1.1" xmlns:xlink="http://www.w3.org/1999/xlink" width="12px" height="12px" viewBox="155 392.5  12 12" xmlns="http://www.w3.org/2000/svg">
  <path d="M 161 392.5  C 164.36 392.5  167 395.14  167 398.5  C 167 401.86  164.36 404.5  161 404.5  C 157.64 404.5  155 401.86  155 398.5  C 155 395.14  157.64 392.5  161 392.5  Z " fill-rule="nonzero" fill="#f0f0f0" stroke="none" />
  <path d="M 161 393  C 164.08 393  166.5 395.42  166.5 398.5  C 166.5 401.58  164.08 404  161 404  C 157.92 404  155.5 401.58  155.5 398.5  C 155.5 395.42  157.92 393  161 393  Z " stroke-width="1" stroke="#797979" fill="none" />
  <path d="M 161 401.5  C 159.32 401.5  158 400.18  158 398.5  C 158 396.82  159.32 395.5  161 395.5  C 162.68 395.5  164 396.82  164 398.5  C 164 400.18  162.68 401.5  161 401.5  " fill-rule="nonzero" fill="#797979" stroke="none" />
</svg>