<?xml version="1.0" encoding="utf-8"?>
<svg version="1.1" xmlns:xlink="http://www.w3.org/1999/xlink" width="20px" height="21px" xmlns="http://www.w3.org/2000/svg">
  <g transform="matrix(1 0 0 1 -594 -509 )">
    <path d="M 19.3402777777778 9.5771484375  C 19.7800925925926 9.8369140625  20 10.14453125  20 10.5  C 20 10.85546875  19.7800925925926 11.1630859375  19.3402777777778 11.4228515625  L 3.78472222222222 20.6103515625  C 3.34490740740741 20.8701171875  2.82407407407407 21  2.22222222222222 21  C 1.62037037037037 21  1.09953703703704 20.8701171875  0.659722222222222 20.6103515625  C 0.219907407407407 20.3505859375  0 20.04296875  0 19.6875  L 0 1.3125  C 0 0.957031249999997  0.219907407407407 0.649414062499997  0.659722222222222 0.3896484375  C 1.09953703703704 0.129882812499998  1.62037037037037 0  2.22222222222222 0  C 2.82407407407407 0  3.34490740740741 0.129882812499998  3.78472222222222 0.3896484375  L 19.3402777777778 9.5771484375  Z " fill-rule="nonzero" fill="#8c8c8c" stroke="none" transform="matrix(1 0 0 1 594 509 )" />
  </g>
</svg>