<?xml version="1.0" encoding="utf-8"?>
<svg version="1.1" xmlns:xlink="http://www.w3.org/1999/xlink" width="20px" height="21px" xmlns="http://www.w3.org/2000/svg">
  <g transform="matrix(1 0 0 1 -410 -509 )">
    <path d="M 19.3402777777778 0.3896484375  C 19.7800925925926 0.649414062499997  20 0.957031249999997  20 1.3125  L 20 19.6875  C 20 20.04296875  19.7800925925926 20.3505859375  19.3402777777778 20.6103515625  C 18.900462962963 20.8701171875  18.3796296296296 21  17.7777777777778 21  C 17.1759259259259 21  16.6550925925926 20.8701171875  16.2152777777778 20.6103515625  L 0.659722222222222 11.4228515625  C 0.219907407407408 11.1630859375  0 10.85546875  0 10.5  C 0 10.14453125  0.219907407407408 9.8369140625  0.659722222222222 9.5771484375  L 16.2152777777778 0.3896484375  C 16.6550925925926 0.129882812499998  17.1759259259259 0  17.7777777777778 0  C 18.3796296296296 0  18.900462962963 0.129882812499998  19.3402777777778 0.3896484375  Z " fill-rule="nonzero" fill="#000000" stroke="none" transform="matrix(1 0 0 1 410 509 )" />
  </g>
</svg>