<?xml version="1.0" encoding="utf-8"?>
<svg version="1.1" xmlns:xlink="http://www.w3.org/1999/xlink" width="47px" height="50px" xmlns="http://www.w3.org/2000/svg">
  <g transform="matrix(1 0 0 1 -113 -624 )">
    <path d="M 36.120979020979 25  L 44.8636363636364 30.0130208333333  C 45.8715617715618 30.5772569444444  46.5234265734266 31.4181857638889  46.8192307692308 32.5358072916667  C 47.115034965035 33.6534288194444  46.9780885780886 34.7113715277778  46.4083916083916 35.7096354166667  L 44.3048951048951 39.2903645833333  C 43.7351981351981 40.2886284722222  42.8861305361305 40.9342447916667  41.7576923076923 41.2272135416667  C 40.6292540792541 41.5201822916667  39.5610722610723 41.3845486111111  38.5531468531469 40.8203125  L 29.8104895104895 35.83984375  L 29.8104895104895 45.8333333333333  C 29.8104895104895 46.9618055555556  29.3941724941725 47.9383680555556  28.5615384615385 48.7630208333333  C 27.7289044289044 49.5876736111111  26.7428904428904 50  25.6034965034965 50  L 21.3965034965035 50  C 20.2571095571096 50  19.2710955710956 49.5876736111111  18.4384615384615 48.7630208333333  C 17.6058275058275 47.9383680555556  17.1895104895105 46.9618055555556  17.1895104895105 45.8333333333333  L 17.1895104895105 35.83984375  L 8.44685314685315 40.8203125  C 7.43892773892774 41.3845486111111  6.37074592074592 41.5201822916667  5.24230769230769 41.2272135416667  C 4.11386946386946 40.9342447916667  3.26480186480187 40.2886284722222  2.6951048951049 39.2903645833333  L 0.591608391608392 35.7096354166667  C 0.0219114219114221 34.7113715277778  -0.115034965034965 33.6534288194444  0.180769230769231 32.5358072916667  C 0.476573426573427 31.4181857638889  1.12843822843823 30.5772569444444  2.13636363636364 30.0130208333333  L 10.879020979021 25  L 2.13636363636364 19.9869791666667  C 1.12843822843823 19.4227430555556  0.476573426573427 18.5818142361111  0.180769230769231 17.4641927083333  C -0.115034965034965 16.3465711805556  0.0219114219114221 15.2886284722222  0.591608391608392 14.2903645833333  L 2.6951048951049 10.7096354166667  C 3.26480186480187 9.71137152777777  4.11386946386946 9.06575520833333  5.24230769230769 8.77278645833333  C 6.37074592074592 8.47981770833333  7.43892773892774 8.61545138888888  8.44685314685315 9.1796875  L 17.1895104895105 14.16015625  L 17.1895104895105 4.16666666666667  C 17.1895104895105 3.03819444444444  17.6058275058275 2.06163194444444  18.4384615384615 1.23697916666667  C 19.2710955710956 0.412326388888884  20.2571095571096 0  21.3965034965035 0  L 25.6034965034965 0  C 26.7428904428904 0  27.7289044289044 0.412326388888884  28.5615384615385 1.23697916666667  C 29.3941724941725 2.06163194444444  29.8104895104895 3.03819444444444  29.8104895104895 4.16666666666667  L 29.8104895104895 14.16015625  L 38.5531468531469 9.1796875  C 39.5610722610723 8.61545138888888  40.6292540792541 8.47981770833333  41.7576923076923 8.77278645833333  C 42.8861305361305 9.06575520833333  43.7351981351981 9.71137152777777  44.3048951048951 10.7096354166667  L 46.4083916083916 14.2903645833333  C 46.9780885780886 15.2886284722222  47.115034965035 16.3465711805556  46.8192307692308 17.4641927083333  C 46.5234265734266 18.5818142361111  45.8715617715618 19.4227430555556  44.8636363636364 19.9869791666667  L 36.120979020979 25  Z " fill-rule="nonzero" fill="#f2f2f2" stroke="none" transform="matrix(1 0 0 1 113 624 )" />
  </g>
</svg>