<?xml version="1.0" encoding="utf-8"?>
<svg version="1.1" xmlns:xlink="http://www.w3.org/1999/xlink" width="47px" height="48px" xmlns="http://www.w3.org/2000/svg">
  <g transform="matrix(1 0 0 1 -364 -624 )">
    <path d="M 36.120979020979 24  L 44.8636363636364 28.8125  C 45.8715617715618 29.3541666666667  46.5234265734266 30.1614583333333  46.8192307692308 31.234375  C 47.115034965035 32.3072916666667  46.9780885780886 33.3229166666667  46.4083916083916 34.28125  L 44.3048951048951 37.71875  C 43.7351981351981 38.6770833333333  42.8861305361305 39.296875  41.7576923076923 39.578125  C 40.6292540792541 39.859375  39.5610722610723 39.7291666666667  38.5531468531469 39.1875  L 29.8104895104895 34.40625  L 29.8104895104895 44  C 29.8104895104895 45.0833333333333  29.3941724941725 46.0208333333333  28.5615384615385 46.8125  C 27.7289044289044 47.6041666666667  26.7428904428904 48  25.6034965034965 48  L 21.3965034965035 48  C 20.2571095571096 48  19.2710955710956 47.6041666666667  18.4384615384615 46.8125  C 17.6058275058275 46.0208333333333  17.1895104895105 45.0833333333333  17.1895104895105 44  L 17.1895104895105 34.40625  L 8.44685314685315 39.1875  C 7.43892773892774 39.7291666666667  6.37074592074592 39.859375  5.24230769230769 39.578125  C 4.11386946386946 39.296875  3.26480186480187 38.6770833333333  2.6951048951049 37.71875  L 0.591608391608392 34.28125  C 0.0219114219114221 33.3229166666667  -0.115034965034965 32.3072916666667  0.180769230769231 31.234375  C 0.476573426573427 30.1614583333333  1.12843822843823 29.3541666666667  2.13636363636364 28.8125  L 10.879020979021 24  L 2.13636363636364 19.1875  C 1.12843822843823 18.6458333333333  0.476573426573427 17.8385416666667  0.180769230769231 16.765625  C -0.115034965034965 15.6927083333333  0.0219114219114221 14.6770833333333  0.591608391608392 13.71875  L 2.6951048951049 10.28125  C 3.26480186480187 9.32291666666666  4.11386946386946 8.703125  5.24230769230769 8.421875  C 6.37074592074592 8.140625  7.43892773892774 8.27083333333333  8.44685314685315 8.8125  L 17.1895104895105 13.59375  L 17.1895104895105 4  C 17.1895104895105 2.91666666666666  17.6058275058275 1.97916666666666  18.4384615384615 1.1875  C 19.2710955710956 0.395833333333329  20.2571095571096 0  21.3965034965035 0  L 25.6034965034965 0  C 26.7428904428904 0  27.7289044289044 0.395833333333329  28.5615384615385 1.1875  C 29.3941724941725 1.97916666666666  29.8104895104895 2.91666666666666  29.8104895104895 4  L 29.8104895104895 13.59375  L 38.5531468531469 8.8125  C 39.5610722610723 8.27083333333333  40.6292540792541 8.140625  41.7576923076923 8.421875  C 42.8861305361305 8.703125  43.7351981351981 9.32291666666666  44.3048951048951 10.28125  L 46.4083916083916 13.71875  C 46.9780885780886 14.6770833333333  47.115034965035 15.6927083333333  46.8192307692308 16.765625  C 46.5234265734266 17.8385416666667  45.8715617715618 18.6458333333333  44.8636363636364 19.1875  L 36.120979020979 24  Z " fill-rule="nonzero" fill="#000000" stroke="none" transform="matrix(1 0 0 1 364 624 )" />
  </g>
</svg>