<?xml version="1.0" encoding="utf-8"?>
<svg version="1.1" xmlns:xlink="http://www.w3.org/1999/xlink" width="376px" height="230px" xmlns="http://www.w3.org/2000/svg">
  <g transform="matrix(1 0 0 1 -606 -1010 )">
    <path d="M 606 1010  L 982 1010  L 982 1240  L 606 1240  L 606 1010  " fill-rule="nonzero" fill="#cccccc" stroke="none" />
    <path d="M 622 1026  L 966 1026  L 966 1224  L 622 1224  L 622 1026  " fill-rule="nonzero" fill="#ffffff" stroke="none" />
    <path d="M 818.77 1079  C 809.11 1079  801.52 1071.41  801.52 1061.75  C 801.52 1052.09  809.11 1044.5  818.77 1044.5  C 828.43 1044.5  836.02 1052.09  836.02 1061.75  C 836.02 1071.41  828.43 1079  818.77 1079  " fill-rule="nonzero" fill="#cccccc" stroke="none" />
    <path d="M 628 1218  L 628 1115.7  L 711 1069.2  L 827.2 1149.73404255319  L 893.6 1097.1  L 960 1149.73404255319  L 960 1218  L 628 1218  " fill-rule="nonzero" fill="#169bd5" stroke="none" />
  </g>
</svg>