<?xml version="1.0" encoding="utf-8"?>
<svg version="1.1" xmlns:xlink="http://www.w3.org/1999/xlink" width="15px" height="16px" xmlns="http://www.w3.org/2000/svg">
  <g transform="matrix(1 0 0 1 -90 -83 )">
    <path d="M 12.6923076923077 2.28571428571429  L 13.8461538461538 2.28571428571429  C 14.1586538461538 2.28571428571429  14.4290865384615 2.39880952380952  14.6574519230769 2.625  C 14.8858173076923 2.85119047619048  15 3.11904761904762  15 3.42857142857143  L 15 14.8571428571429  C 15 15.1666666666667  14.8858173076923 15.4345238095238  14.6574519230769 15.6607142857143  C 14.4290865384615 15.8869047619048  14.1586538461538 16  13.8461538461538 16  L 1.15384615384615 16  C 0.841346153846154 16  0.570913461538462 15.8869047619048  0.342548076923077 15.6607142857143  C 0.114182692307692 15.4345238095238  0 15.1666666666667  0 14.8571428571429  L 0 3.42857142857143  C 0 3.11904761904762  0.114182692307692 2.85119047619048  0.342548076923077 2.625  C 0.570913461538462 2.39880952380952  0.841346153846154 2.28571428571429  1.15384615384615 2.28571428571429  L 2.30769230769231 2.28571428571429  L 2.30769230769231 1.42857142857143  C 2.30769230769231 1.03571428571429  2.44891826923077 0.699404761904761  2.73137019230769 0.419642857142858  C 3.01382211538462 0.139880952380953  3.35336538461538 0  3.75 0  L 4.32692307692308 0  C 4.72355769230769 0  5.06310096153846 0.139880952380953  5.34555288461538 0.419642857142858  C 5.62800480769231 0.699404761904761  5.76923076923077 1.03571428571429  5.76923076923077 1.42857142857143  L 5.76923076923077 2.28571428571429  L 9.23076923076923 2.28571428571429  L 9.23076923076923 1.42857142857143  C 9.23076923076923 1.03571428571429  9.37199519230769 0.699404761904761  9.65444711538462 0.419642857142858  C 9.93689903846154 0.139880952380953  10.2764423076923 0  10.6730769230769 0  L 11.25 0  C 11.6466346153846 0  11.9861778846154 0.139880952380953  12.2686298076923 0.419642857142858  C 12.5510817307692 0.699404761904761  12.6923076923077 1.03571428571429  12.6923076923077 1.42857142857143  L 12.6923076923077 2.28571428571429  Z M 10.4657451923077 1.22321428571429  C 10.4116586538462 1.27678571428571  10.3846153846154 1.34523809523809  10.3846153846154 1.42857142857143  L 10.3846153846154 4  C 10.3846153846154 4.08333333333333  10.4116586538462 4.15178571428571  10.4657451923077 4.20535714285714  C 10.5198317307692 4.25892857142857  10.5889423076923 4.28571428571429  10.6730769230769 4.28571428571429  L 11.25 4.28571428571429  C 11.3341346153846 4.28571428571429  11.4032451923077 4.25892857142857  11.4573317307692 4.20535714285714  C 11.5114182692308 4.15178571428571  11.5384615384615 4.08333333333333  11.5384615384615 4  L 11.5384615384615 1.42857142857143  C 11.5384615384615 1.34523809523809  11.5114182692308 1.27678571428571  11.4573317307692 1.22321428571429  C 11.4032451923077 1.16964285714286  11.3341346153846 1.14285714285714  11.25 1.14285714285714  L 10.6730769230769 1.14285714285714  C 10.5889423076923 1.14285714285714  10.5198317307692 1.16964285714286  10.4657451923077 1.22321428571429  Z M 3.54266826923077 1.22321428571429  C 3.48858173076923 1.27678571428571  3.46153846153846 1.34523809523809  3.46153846153846 1.42857142857143  L 3.46153846153846 4  C 3.46153846153846 4.08333333333333  3.48858173076923 4.15178571428571  3.54266826923077 4.20535714285714  C 3.59675480769231 4.25892857142857  3.66586538461539 4.28571428571429  3.75 4.28571428571429  L 4.32692307692308 4.28571428571429  C 4.41105769230769 4.28571428571429  4.48016826923077 4.25892857142857  4.53425480769231 4.20535714285714  C 4.58834134615385 4.15178571428571  4.61538461538462 4.08333333333333  4.61538461538462 4  L 4.61538461538462 1.42857142857143  C 4.61538461538462 1.34523809523809  4.58834134615385 1.27678571428571  4.53425480769231 1.22321428571429  C 4.48016826923077 1.16964285714286  4.41105769230769 1.14285714285714  4.32692307692308 1.14285714285714  L 3.75 1.14285714285714  C 3.66586538461539 1.14285714285714  3.59675480769231 1.16964285714286  3.54266826923077 1.22321428571429  Z M 1.15384615384615 14.8571428571429  L 13.8461538461538 14.8571428571429  L 13.8461538461538 6  L 1.15384615384615 6  L 1.15384615384615 14.8571428571429  Z M 8.07692307692308 7.71428571428571  L 8.07692307692308 9.71428571428572  L 10.0961538461538 9.71428571428572  C 10.1802884615385 9.71428571428572  10.2493990384615 9.74107142857143  10.3034855769231 9.79464285714286  C 10.3575721153846 9.84821428571428  10.3846153846154 9.91666666666666  10.3846153846154 10  L 10.3846153846154 10.5714285714286  C 10.3846153846154 10.6547619047619  10.3575721153846 10.7232142857143  10.3034855769231 10.7767857142857  C 10.2493990384615 10.8303571428571  10.1802884615385 10.8571428571429  10.0961538461538 10.8571428571429  L 8.07692307692308 10.8571428571429  L 8.07692307692308 12.8571428571429  C 8.07692307692308 12.9404761904762  8.04987980769231 13.0089285714286  7.99579326923077 13.0625  C 7.94170673076923 13.1160714285714  7.87259615384615 13.1428571428571  7.78846153846154 13.1428571428571  L 7.21153846153846 13.1428571428571  C 7.12740384615385 13.1428571428571  7.05829326923077 13.1160714285714  7.00420673076923 13.0625  C 6.95012019230769 13.0089285714286  6.92307692307692 12.9404761904762  6.92307692307692 12.8571428571429  L 6.92307692307692 10.8571428571429  L 4.90384615384615 10.8571428571429  C 4.81971153846154 10.8571428571429  4.75060096153846 10.8303571428571  4.69651442307692 10.7767857142857  C 4.64242788461538 10.7232142857143  4.61538461538462 10.6547619047619  4.61538461538462 10.5714285714286  L 4.61538461538462 10  C 4.61538461538462 9.91666666666666  4.64242788461538 9.84821428571428  4.69651442307692 9.79464285714286  C 4.75060096153846 9.74107142857143  4.81971153846154 9.71428571428572  4.90384615384615 9.71428571428572  L 6.92307692307692 9.71428571428572  L 6.92307692307692 7.71428571428571  C 6.92307692307692 7.63095238095238  6.95012019230769 7.5625  7.00420673076923 7.50892857142857  C 7.05829326923077 7.45535714285714  7.12740384615385 7.42857142857143  7.21153846153846 7.42857142857143  L 7.78846153846154 7.42857142857143  C 7.87259615384615 7.42857142857143  7.94170673076923 7.45535714285714  7.99579326923077 7.50892857142857  C 8.04987980769231 7.5625  8.07692307692308 7.63095238095238  8.07692307692308 7.71428571428571  Z " fill-rule="nonzero" fill="#000000" stroke="none" transform="matrix(1 0 0 1 90 83 )" />
  </g>
</svg>