<?xml version="1.0" encoding="utf-8"?>
<svg version="1.1" xmlns:xlink="http://www.w3.org/1999/xlink" width="9px" height="17px" xmlns="http://www.w3.org/2000/svg">
  <g transform="matrix(1 0 0 1 -16 -24 )">
    <path d="M 8.30592798406428 16.7499156471946  C 8.19417873479675 16.8705338656339  8.04778509604722 16.9308429842863  7.90139145729769 16.9308429842863  C 7.75499781854803 16.9308429842863  7.6086041797985 16.8705338656339  7.49685493053097 16.7499156471946  L 0.249573704390059 8.92745337136006  C 0.0260752408114797 8.68640998424183  0.0260752408114797 8.29521157670458  0.249573704390059 8.05418748890268  L 7.49685493053097 0.231705894886366  C 7.72035339410955 -0.00953054199216906  8.08241162275837 -0.00953054199216906  8.30591008633708 0.231705894886366  C 8.52940854991579 0.472749282004604  8.52940854991579 0.863947689541923  8.30591008633708 1.10497177734375  L 1.46316538696288 8.4908107710405  L 8.30592798406428 15.8766497647372  C 8.52942644764299 16.1176931518555  8.52942644764299 16.5088915593927  8.30592798406428 16.7499156471946  Z " fill-rule="nonzero" fill="#1989fa" stroke="none" transform="matrix(1 0 0 1 16 24 )" />
  </g>
</svg>