<?xml version="1.0" encoding="utf-8"?>
<svg version="1.1" xmlns:xlink="http://www.w3.org/1999/xlink" width="27px" height="27px" xmlns="http://www.w3.org/2000/svg">
  <g transform="matrix(1 0 0 1 -49 -318 )">
    <path d="M 2 2.99999999999996  L 2 19.7055  L 8.9325 15.5745  C 10.1398048310514 14.9038936066875  11.6179935945481 14.9511495437661  12.78 15.6975  L 15.945 17.73  C 16.7431581262517 18.2423137489145  17.776866572125 18.1991175747399  18.5295000000001 17.622  L 25.5 12.2775  L 25.5 2.99999999999996  C 25.5 2.17157287525377  24.8284271247462 1.49999999999998  24 2  L 2.99999999999996 2  C 2.17157287525377 1.49999999999998  1.49999999999998 2.17157287525377  2 2.99999999999996  Z M 1.49999999999998 21.423  L 1.49999999999998 21.4215  L 1.49999999999998 24  C 1.49999999999998 24.8284271247462  2.17157287525377 25.5  2.99999999999996 25.5  C 2.99999999999996 25.5  2.99999999999996 25.5  2.99999999999996 25  L 24 25  C 24.8284271247462 25.5  25.5 24.8284271247462  25.5 24  L 25.5 14.1675  L 19.443 18.813  C 18.1885069701965 19.7750948884673  16.4653782720492 19.8470919092813  15.135 18.993  L 11.97 16.9605  C 11.2726571890626 16.5117169309875  10.3849852348341 16.482896412993  9.66000000000004 16.8855  L 1.49999999999998 21.423  Z M 0 2.99999999999996  C 0 1.34314575050759  1.34314575050759 0  2.99999999999996 0  L 24 0  C 25.6568542494924 0  27 1.34314575050759  27 2.99999999999996  L 27 24  C 27 25.6568542494924  25.6568542494924 27  24 27  L 2.99999999999996 27  C 1.34314575050759 27  0 25.6568542494924  0 24  L 0 2.99999999999996  Z M 7.50000000000002 11.25  C 5.4289321881345 11.25  3.75000000000004 9.57106781186548  3.75000000000004 7.50000000000002  C 3.75000000000004 5.4289321881345  5.4289321881345 3.75000000000004  7.50000000000002 3.75000000000004  C 9.57106781186548 3.75000000000004  11.25 5.4289321881345  11.25 7.50000000000002  C 11.25 9.57106781186548  9.57106781186548 11.25  7.50000000000002 11.25  Z M 7.50000000000002 9.74999999999996  C 8.7426406871193 9.74999999999996  9.74999999999996 8.7426406871193  9.74999999999996 7.50000000000002  C 9.74999999999996 6.25735931288068  8.7426406871193 5.25000000000002  7.50000000000002 5.25000000000002  C 6.25735931288068 5.25000000000002  5.25000000000002 6.25735931288068  5.25000000000002 7.50000000000002  C 5.25000000000002 8.7426406871193  6.25735931288068 9.74999999999996  7.50000000000002 9.74999999999996  Z " fill-rule="nonzero" fill="#000000" stroke="none" transform="matrix(1 0 0 1 49 318 )" />
  </g>
</svg>