<?xml version="1.0" encoding="utf-8"?>
<svg version="1.1" xmlns:xlink="http://www.w3.org/1999/xlink" width="19px" height="13px" xmlns="http://www.w3.org/2000/svg">
  <g transform="matrix(1 0 0 1 -28 -214 )">
    <path d="M 4.08453062676678 3.70909361553767  L 0.0725828855682213 3.70909361553767  L 0.0725828855682213 9.08516870598069  L 4.08453062676678 9.08516870598069  L 8.48446387136527 12.7402184315074  L 8.48446387136527 0.0535616508714887  L 4.08453062676678 3.70909361553767  Z M 4.62036359647872 4.78433619255296  L 4.99953878811383 4.46935883400658  L 7.19025975391843 2.6491452161384  L 7.19025975391843 10.1446004133745  L 4.99953878811383 8.3249723764131  L 4.62036357622062 8.00989167609939  L 1.36664189485762 8.00989169293026  L 1.36664189485762 4.78433619255296  L 4.62036359647872 4.78433619255296  Z M 18.1898233730486 6.39714838719226  C 18.1898441172554 4.1133558878581  17.2717056875192 2.00973497980289  15.7418412226877 0.30660448737869  L 14.7055616587377 0.947633688631961  C 16.0742491876342 2.47119540553236  16.8956192758598 4.35387747229377  16.8956192758598 6.39714838719221  C 16.8956192758598 8.44041930209076  16.074871108677 10.3226018948641  14.7055616587377 11.8467147566362  L 15.7418412226877 12.4876922870058  C 17.2717056875192 10.7846306666519  18.1898233730486 8.6808719807943  18.1898233730486 6.39714838719226  Z M 11.9857450323694 2.22964042025482  L 10.9495276605236 2.8707557620887  C 11.8354306868664 3.85671342532999  12.3668688626704 5.07464996115942  12.3668688626704 6.39714838719221  C 12.3668688626704 7.71959514234137  11.8354306868664 8.93763501993811  10.9495276605236 9.92359268317941  L 11.9857450323694 10.5646218844327  C 13.0328871867514 9.39909544566763  13.6610107880129 7.96004782104491  13.6610107880129 6.39713115234372  C 13.6610107880129 4.8341628127589  13.0329079107003 3.39463294899684  11.9857450323694 2.22964042025482  Z " fill-rule="nonzero" fill="#ed6a0c" stroke="none" transform="matrix(1 0 0 1 28 214 )" />
  </g>
</svg>