<?xml version="1.0" encoding="utf-8"?>
<svg version="1.1" xmlns:xlink="http://www.w3.org/1999/xlink" width="12px" height="12px" viewBox="246 402.5  12 12" xmlns="http://www.w3.org/2000/svg">
  <path d="M 252 402.5  C 255.36 402.5  258 405.14  258 408.5  C 258 411.86  255.36 414.5  252 414.5  C 248.64 414.5  246 411.86  246 408.5  C 246 405.14  248.64 402.5  252 402.5  Z " fill-rule="nonzero" fill="#ffffff" stroke="none" />
  <path d="M 252 403  C 255.08 403  257.5 405.42  257.5 408.5  C 257.5 411.58  255.08 414  252 414  C 248.92 414  246.5 411.58  246.5 408.5  C 246.5 405.42  248.92 403  252 403  Z " stroke-width="1" stroke="#797979" fill="none" />
  <path d="M 252 411.5  C 250.32 411.5  249 410.18  249 408.5  C 249 406.82  250.32 405.5  252 405.5  C 253.68 405.5  255 406.82  255 408.5  C 255 410.18  253.68 411.5  252 411.5  " fill-rule="nonzero" fill="#797979" stroke="none" />
</svg>