<?xml version="1.0" encoding="utf-8"?>
<svg version="1.1" xmlns:xlink="http://www.w3.org/1999/xlink" width="12px" height="12px" viewBox="244 465.5  12 12" xmlns="http://www.w3.org/2000/svg">
  <path d="M 250 465.5  C 253.36 465.5  256 468.14  256 471.5  C 256 474.86  253.36 477.5  250 477.5  C 246.64 477.5  244 474.86  244 471.5  C 244 468.14  246.64 465.5  250 465.5  Z " fill-rule="nonzero" fill="#f0f0f0" stroke="none" />
  <path d="M 250 466  C 253.08 466  255.5 468.42  255.5 471.5  C 255.5 474.58  253.08 477  250 477  C 246.92 477  244.5 474.58  244.5 471.5  C 244.5 468.42  246.92 466  250 466  Z " stroke-width="1" stroke="#797979" fill="none" />
  <path d="M 250 474.5  C 248.32 474.5  247 473.18  247 471.5  C 247 469.82  248.32 468.5  250 468.5  C 251.68 468.5  253 469.82  253 471.5  C 253 473.18  251.68 474.5  250 474.5  " fill-rule="nonzero" fill="#797979" stroke="none" />
</svg>