<?xml version="1.0" encoding="utf-8"?>
<svg version="1.1" xmlns:xlink="http://www.w3.org/1999/xlink" width="12px" height="12px" viewBox="134 465.5  12 12" xmlns="http://www.w3.org/2000/svg">
  <path d="M 140 465.5  C 143.36 465.5  146 468.14  146 471.5  C 146 474.86  143.36 477.5  140 477.5  C 136.64 477.5  134 474.86  134 471.5  C 134 468.14  136.64 465.5  140 465.5  Z " fill-rule="nonzero" fill="#ffffff" stroke="none" />
  <path d="M 140 466  C 143.08 466  145.5 468.42  145.5 471.5  C 145.5 474.58  143.08 477  140 477  C 136.92 477  134.5 474.58  134.5 471.5  C 134.5 468.42  136.92 466  140 466  Z " stroke-width="1" stroke="#797979" fill="none" />
  <path d="M 140 474.5  C 138.32 474.5  137 473.18  137 471.5  C 137 469.82  138.32 468.5  140 468.5  C 141.68 468.5  143 469.82  143 471.5  C 143 473.18  141.68 474.5  140 474.5  " fill-rule="nonzero" fill="#797979" stroke="none" />
</svg>