<?xml version="1.0" encoding="utf-8"?>
<svg version="1.1" xmlns:xlink="http://www.w3.org/1999/xlink" width="12px" height="12px" viewBox="146 428.5  12 12" xmlns="http://www.w3.org/2000/svg">
  <path d="M 152 428.5  C 155.36 428.5  158 431.14  158 434.5  C 158 437.86  155.36 440.5  152 440.5  C 148.64 440.5  146 437.86  146 434.5  C 146 431.14  148.64 428.5  152 428.5  Z " fill-rule="nonzero" fill="#ffffff" stroke="none" />
  <path d="M 152 429  C 155.08 429  157.5 431.42  157.5 434.5  C 157.5 437.58  155.08 440  152 440  C 148.92 440  146.5 437.58  146.5 434.5  C 146.5 431.42  148.92 429  152 429  Z " stroke-width="1" stroke="#797979" fill="none" />
  <path d="M 152 437.5  C 150.32 437.5  149 436.18  149 434.5  C 149 432.82  150.32 431.5  152 431.5  C 153.68 431.5  155 432.82  155 434.5  C 155 436.18  153.68 437.5  152 437.5  " fill-rule="nonzero" fill="#797979" stroke="none" />
</svg>