<?xml version="1.0" encoding="utf-8"?>
<svg version="1.1" xmlns:xlink="http://www.w3.org/1999/xlink" width="12px" height="12px" viewBox="256 428.5  12 12" xmlns="http://www.w3.org/2000/svg">
  <path d="M 262 428.5  C 265.36 428.5  268 431.14  268 434.5  C 268 437.86  265.36 440.5  262 440.5  C 258.64 440.5  256 437.86  256 434.5  C 256 431.14  258.64 428.5  262 428.5  Z " fill-rule="nonzero" fill="#ffffff" stroke="none" />
  <path d="M 262 429  C 265.08 429  267.5 431.42  267.5 434.5  C 267.5 437.58  265.08 440  262 440  C 258.92 440  256.5 437.58  256.5 434.5  C 256.5 431.42  258.92 429  262 429  Z " stroke-width="1" stroke="#797979" fill="none" />
  <path d="M 262 437.5  C 260.32 437.5  259 436.18  259 434.5  C 259 432.82  260.32 431.5  262 431.5  C 263.68 431.5  265 432.82  265 434.5  C 265 436.18  263.68 437.5  262 437.5  " fill-rule="nonzero" fill="#797979" stroke="none" />
</svg>