<?xml version="1.0" encoding="utf-8"?>
<svg version="1.1" xmlns:xlink="http://www.w3.org/1999/xlink" width="15px" height="13px" xmlns="http://www.w3.org/2000/svg">
  <g transform="matrix(1 0 0 1 -107 -23 )">
    <path d="M 14.24015625 5.21932164634148  L 9.02765625000001 0.638687754065074  C 8.60109374999999 0.227896341463406  8.14875000000001 0.0875254065040849  7.61906250000001 0.0875254065040849  C 7.145625 0.0875254065040849  6.68624999999999 0.174225101626064  6.21046875 0.640752032520311  L 0.866718749999993 5.24822154471548  C 0.383906249999998 5.67552718495938  0.0393750000000035 6.1895325203252  0.0393750000000035 6.790237550813  L 0.0393750000000035 12.1676829268293  C 0.0393750000000035 12.5846671747968  0.351093750000003 12.9211445630082  0.82453124999999 12.9211445630082  C 1.29796875000001 12.9211445630082  1.60968749999999 12.5846671747968  1.60968749999999 12.1676829268293  L 1.60968749999999 6.790237550813  C 1.60968749999999 6.5900025406504  1.84875 6.40008892276421  2.008125 6.25971798780489  L 7.34484375 1.60064151422762  C 7.41515625 1.53664888211381  7.53703124999999 1.52839176829269  7.57921875 1.52839176829269  C 7.62140625000001 1.52839176829269  7.72453125000001 1.53664888211381  7.79718750000001 1.60064151422762  L 13.089375 6.23081808943084  C 13.25109375 6.37325330284551  13.3753125 6.5631669207317  13.3753125 6.7634019308943  L 13.3753125 12.1676829268293  C 13.3753125 12.5846671747968  13.68703125 12.9211445630082  14.16046875 12.9211445630082  C 14.63390625 12.9211445630082  14.945625 12.5846671747968  14.945625 12.1676829268293  L 14.945625 6.7654662093496  C 14.945625 6.1626969004065  14.72296875 5.64662728658539  14.24015625 5.21932164634148  Z " fill-rule="nonzero" fill="#000000" stroke="none" transform="matrix(1 0 0 1 107 23 )" />
  </g>
</svg>