<?xml version="1.0" encoding="utf-8"?>
<svg version="1.1" xmlns:xlink="http://www.w3.org/1999/xlink" width="23px" height="18px" xmlns="http://www.w3.org/2000/svg">
  <g transform="matrix(1 0 0 1 -302 -18 )">
    <path d="M 22.5281035741494 5.40445657694261  C 22.5798470035551 3.58325926866434  21.9318221495683 2.09844781615033  20.6554842242255 1.11071609954291  C 19.7364223590655 0.401520441848675  18.5266117001016 0.0501364906043591  17.2527377475876 0.120841797866944  C 15.8458092623159 0.200117445403748  14.4536646140173 0.793613509395641  13.2290701180802 1.83705243778564  C 12.8767220035551 2.13701434738442  12.8717940578974 2.62766632808535  13.2167502539359 2.9340559928898  C 13.5617064499746 3.24044565769424  14.1259562277806 3.24473082783135  14.4783043423058 2.94476891823263  C 16.4051310944642 1.30354875571356  18.3738453847131 1.42353351955308  19.4678493207212 2.26771203656682  C 21.2936531868969 3.67753301168108  21.1556707084814 6.80356462671409  19.1228931246825 10.0474384205181  L 19.1105732605384 10.0667216861351  C 18.5167558087862 11.0823070086338  17.5065269489589 12.1750253936008  16.1069903821737 13.3148806500762  C 14.9021076688674 14.2961846114779  13.4138680802438 15.2989144235653  11.8048938230066 16.2137982478416  C 11.5067531107161 16.383062468258  11.1223733494159 16.383062468258  10.8242326371254 16.2137982478416  C 9.21525837988829 15.2967718384967  7.72701879126459 14.2940420264093  6.52213607795828 13.3148806500762  C 5.1225995111732 12.1750253936008  4.10990667851702 11.0823070086338  3.51855319959373 10.0667216861351  L 3.50623333544941 10.0474384205181  C 1.47838369730835 6.80999238191976  1.34286519172168 3.68181818181819  3.16374111223966 2.26556945149821  C 3.7477026726765 1.81134141696293  4.5829894616557 1.57565705942102  5.4503078974098 1.62065134586084  C 6.49996032249874 1.67421597257493  7.5397568562722 2.11558849669882  8.45881872143215 2.89977463179281  C 8.81116683595733 3.19973654139159  9.37541661376333 3.19545137125448  9.72037280980186 2.88906170644998  C 10.0653290058405 2.58267204164548  10.0604010601828 2.09202006094466  9.70805294565774 1.79205815134588  C 8.47606653123408 0.74219146775016  7.03957037201631 0.148695403758268  5.55379475622144 0.0715623412899618  C 4.21585751015737 0.00299961909598778  2.90995191086852 0.38223717623157  1.97364223590657 1.10857351447436  C 0.699768283392541 2.09844781615033  0.0542074022346924 3.58540185373283  0.103486858811644 5.40659916201116  C 0.147838369730789 7.07995810055866  0.781079386744514 8.93757935500253  1.93175469781613 10.7802025139665  C 3.6343599225495 13.6855478669376  7.61860398679534 16.24593702387  9.84603542407318 17.5122047993906  C 10.2920145060944 17.7671724225495  10.8045208544947 17.8935849415948  11.314563230066 17.8935849415948  C 11.8246056056374 17.8935849415948  12.3371119540376 17.7671724225495  12.7830910360589 17.5122047993906  C 15.0080585005079 16.2437944388014  18.9923025647536 13.6855478669376  20.6973717623159 10.7802025139665  C 21.8480470733874 8.93757935500253  22.4812880904012 7.07995810055866  22.5281035741494 5.40445657694261  Z " fill-rule="nonzero" fill="#1989fa" stroke="none" transform="matrix(1 0 0 1 302 18 )" />
  </g>
</svg>