<?xml version="1.0" encoding="utf-8"?>
<svg version="1.1" xmlns:xlink="http://www.w3.org/1999/xlink" width="22px" height="9px" xmlns="http://www.w3.org/2000/svg">
  <g transform="matrix(1 0 0 1 -103 -18 )">
    <path d="M 21.6272876381216 8.73671025815219  C 21.9667645027624 8.46157438858694  21.9667645027624 7.98772927989131  21.6272876381216 7.714504076087  L 12.8388725828729 0.669879415760875  C 12.3474620165746 0.274371603260875  11.6946218922652 0.0871263586956275  11.001424378453 0.0871263586956275  L 10.9990504143646 0.0871263586956275  C 10.3034789364641 0.0871263586956275  9.6506388121547 0.278192934782624  9.15922824585635 0.673700747282624  L 0.36606526243095 7.771824048913  C 0.02896236187845 8.04504925271738  0.02896236187845 8.47877038043475  0.368439226519333 8.75008491847825  C 0.536990676795583 8.8857421875  0.757769337016567 8.94879415760869  0.978547997237567 8.94879415760869  C 1.20170062154697 8.94879415760869  1.42247928176795 8.8780995244565  1.5934046961326 8.74244225543475  L 10.386567679558 1.76278023097825  C 10.7640279696133 1.458984375  11.3598929558011 1.55642832880437  11.6139071132597 1.76086956521738  L 20.4023221685083 8.769191576087  C 20.7417990331492 9.04241677989131  21.2901847375691 9.00802479619563  21.6272876381216 8.73671025815219  Z " fill-rule="nonzero" fill="#000000" stroke="none" transform="matrix(1 0 0 1 103 18 )" />
  </g>
</svg>