<?xml version="1.0" encoding="utf-8"?>
<svg version="1.1" xmlns:xlink="http://www.w3.org/1999/xlink" width="428px" height="216px" xmlns="http://www.w3.org/2000/svg">
  <g>
    <path d="M 0 0  L 428 0  L 428 216  L 0 216  L 0 0  " fill-rule="nonzero" fill="#cccccc" stroke="none" />
    <path d="M 15 15  L 413 15  L 413 201  L 15 201  L 15 15  " fill-rule="nonzero" fill="#ffffff" stroke="none" />
    <path d="M 238.76 64.8  C 229.688 64.8  222.56 57.672  222.56 48.6  C 222.56 39.528  229.688 32.4  238.76 32.4  C 247.832 32.4  254.96 39.528  254.96 48.6  C 254.96 57.672  247.832 64.8  238.76 64.8  " fill-rule="nonzero" fill="#cccccc" stroke="none" />
    <path d="M 21 196  L 21 99.75  L 117.75 56  L 253.2 143.009345794393  L 330.6 82.25  L 408 143.009345794393  L 408 196  L 21 196  " fill-rule="nonzero" fill="#169bd5" stroke="none" />
  </g>
</svg>