<?xml version="1.0" encoding="utf-8"?>
<svg version="1.1" xmlns:xlink="http://www.w3.org/1999/xlink" width="22px" height="22px" xmlns="http://www.w3.org/2000/svg">
  <g transform="matrix(1 0 0 1 -121 -130 )">
    <path d="M 132 130  C 138.16 130  143 134.84  143 141  C 143 147.16  138.16 152  132 152  C 125.84 152  121 147.16  121 141  C 121 134.84  125.84 130  132 130  Z " fill-rule="nonzero" fill="#ffffff" stroke="none" />
    <path d="M 132 130.5  C 137.88 130.5  142.5 135.12  142.5 141  C 142.5 146.88  137.88 151.5  132 151.5  C 126.12 151.5  121.5 146.88  121.5 141  C 121.5 135.12  126.12 130.5  132 130.5  Z " stroke-width="1" stroke="#c9c9c9" fill="none" />
  </g>
</svg>