<?xml version="1.0" encoding="utf-8"?>
<svg version="1.1" xmlns:xlink="http://www.w3.org/1999/xlink" width="12px" height="12px" viewBox="129 360.5  12 12" xmlns="http://www.w3.org/2000/svg">
  <path d="M 135 360.5  C 138.36 360.5  141 363.14  141 366.5  C 141 369.86  138.36 372.5  135 372.5  C 131.64 372.5  129 369.86  129 366.5  C 129 363.14  131.64 360.5  135 360.5  Z " fill-rule="nonzero" fill="#ffffff" stroke="none" />
  <path d="M 135 361  C 138.08 361  140.5 363.42  140.5 366.5  C 140.5 369.58  138.08 372  135 372  C 131.92 372  129.5 369.58  129.5 366.5  C 129.5 363.42  131.92 361  135 361  Z " stroke-width="1" stroke="#797979" fill="none" />
  <path d="M 135 369.5  C 133.32 369.5  132 368.18  132 366.5  C 132 364.82  133.32 363.5  135 363.5  C 136.68 363.5  138 364.82  138 366.5  C 138 368.18  136.68 369.5  135 369.5  " fill-rule="nonzero" fill="#797979" stroke="none" />
</svg>