<?xml version="1.0" encoding="utf-8"?>
<svg version="1.1" xmlns:xlink="http://www.w3.org/1999/xlink" width="12px" height="12px" viewBox="239 396.5  12 12" xmlns="http://www.w3.org/2000/svg">
  <path d="M 245 396.5  C 248.36 396.5  251 399.14  251 402.5  C 251 405.86  248.36 408.5  245 408.5  C 241.64 408.5  239 405.86  239 402.5  C 239 399.14  241.64 396.5  245 396.5  Z " fill-rule="nonzero" fill="#f0f0f0" stroke="none" />
  <path d="M 245 397  C 248.08 397  250.5 399.42  250.5 402.5  C 250.5 405.58  248.08 408  245 408  C 241.92 408  239.5 405.58  239.5 402.5  C 239.5 399.42  241.92 397  245 397  Z " stroke-width="1" stroke="#797979" fill="none" />
  <path d="M 245 405.5  C 243.32 405.5  242 404.18  242 402.5  C 242 400.82  243.32 399.5  245 399.5  C 246.68 399.5  248 400.82  248 402.5  C 248 404.18  246.68 405.5  245 405.5  " fill-rule="nonzero" fill="#797979" stroke="none" />
</svg>